<svg xmlns="http://www.w3.org/2000/svg" width="31.55" height="22.498" viewBox="0 0 31.55 22.498">
  <g id="Group_3" data-name="Group 3" transform="translate(-943.379 -30.125)">
    <path id="Subtraction_1" data-name="Subtraction 1" d="M16.281,17.412A10.641,10.641,0,0,1,6.937,1.674c.008-.016.017-.032.026-.048A10.681,10.681,0,0,1,13.888-3.6a1.139,1.139,0,0,1,.244-.053,10.728,10.728,0,0,1,2.149-.218,10.588,10.588,0,0,1,3.666.651,1.628,1.628,0,0,1,.392.141.777.777,0,0,1,.071.041c.18.076.361.159.537.245A8.03,8.03,0,0,0,18.1.019a5.16,5.16,0,0,1-.962.1c-.074,0-.152,0-.238-.007a3.889,3.889,0,0,1-1.274-.38,3.674,3.674,0,0,0-.714-.258,1.037,1.037,0,0,1-.788-.536,1.034,1.034,0,0,1-.067-.632V-1.7l.034-.179.009-.046a1.8,1.8,0,0,0,.045-.325v-.025a.649.649,0,0,1-.139.015h-.032A9.381,9.381,0,0,0,8.186,2.166c0,.044,0,.086,0,.124l.023,0a2.73,2.73,0,0,1,.326-.049c.093-.006.22-.014.367-.014,1.092,0,1.706.446,1.826,1.325.021.15.037.311.053.483v.015c.1.99.214,1.7.79,1.852a.593.593,0,0,0,.148.017A2.369,2.369,0,0,0,12.3,5.8a3.526,3.526,0,0,1,.929-.164h.013a2.464,2.464,0,0,1,1.723.832c.368.343.573.525.844.576a1.163,1.163,0,0,1-.073-.259,1.146,1.146,0,0,1,.4-1.045c-.04-.013-.084-.029-.128-.047a1.318,1.318,0,0,1-.878-1.21,1.809,1.809,0,0,1,1.109-1.562,2.027,2.027,0,0,1,.828-.2H17.1a8.058,8.058,0,0,0-.119,1.339,1.168,1.168,0,0,0-.188.072.649.649,0,0,0-.319.305l.024.011.039.018a.613.613,0,0,0,.123.029l.042.007a2.819,2.819,0,0,1,.293.067,7.964,7.964,0,0,0,.358,1.947c-.047.032-.094.061-.139.087l-.053.031a1.406,1.406,0,0,0,.236.128l.04,0a7.948,7.948,0,0,0,1.179,2.175,1.213,1.213,0,0,1-.038.417,1.406,1.406,0,0,1-.713.83l-.036.022a1.122,1.122,0,0,0-.1.065c-.11.083-.136.138-.137.148s0,.173.373.541a2.825,2.825,0,0,1,.707,2.795c-.087.621-.221,1.225-.34,1.733a5.8,5.8,0,0,0,1.819-2.382,3.281,3.281,0,0,1,1.4-1.393l.008-.005c.116-.072.236-.147.359-.231a7.938,7.938,0,0,0,1.479.447,3.351,3.351,0,0,1-.609.57c-.184.132-.365.245-.535.35a2.062,2.062,0,0,0-.915.854,11.654,11.654,0,0,1-.746,1.317,9.4,9.4,0,0,0,3.375-3,8.086,8.086,0,0,0,.99.061H25.5a10.73,10.73,0,0,1-3.825,3.857A10.617,10.617,0,0,1,16.281,17.412ZM7.536,3.563a9.314,9.314,0,0,0,8.745,12.519c.176,0,.359-.005.543-.015l.076-.318.009-.037c.169-.7.344-1.425.442-2.132.131-.94.117-1.226-.327-1.665a2.062,2.062,0,0,1-.763-1.577,1.521,1.521,0,0,1,.664-1.121c.075-.057.153-.1.236-.155l.008,0c.033-.019.073-.045.1-.065a2.855,2.855,0,0,0-.222-.429l-.014-.023c-.047-.079-.093-.156-.131-.226-.088.008-.181.018-.261.028l-.032,0a5.067,5.067,0,0,1-.6.045,2.506,2.506,0,0,1-.326-.02,2.814,2.814,0,0,1-1.6-.9c-.356-.333-.583-.5-.833-.5h-.017a2.394,2.394,0,0,0-.581.116l-.007,0a3.421,3.421,0,0,1-.93.161,1.887,1.887,0,0,1-.482-.061C9.72,6.794,9.563,5.221,9.458,4.181c-.015-.15-.03-.309-.05-.453-.011-.082-.024-.174-.465-.174-.092,0-.2,0-.325.012a.915.915,0,0,0-.128.021l-.028.006a2.447,2.447,0,0,1-.472.057A1.137,1.137,0,0,1,7.536,3.563Zm8.745-6.108c-.269,0-.546.012-.823.036a1.773,1.773,0,0,1,.018.286,2.744,2.744,0,0,1-.051.458,6.062,6.062,0,0,1,.729.278l.011,0a2.806,2.806,0,0,0,.828.269c.043,0,.089,0,.135,0a5.786,5.786,0,0,0,1.122-.157l.122-.025.074-.015a1.335,1.335,0,0,1-.144-.767,1.3,1.3,0,0,1,.028-.146A9.332,9.332,0,0,0,16.281-2.545Z" transform="translate(937.742 35.211)" fill="#6b6c72"/>
    <text id="AR" transform="translate(956.929 43.125)" fill="#6b6c72" font-size="12" font-family="Poppins-Bold, Poppins" font-weight="700" letter-spacing="0.05em"><tspan x="0" y="0">AR</tspan></text>
  </g>
</svg>
