<svg id="Group_4877" data-name="Group 4877" xmlns="http://www.w3.org/2000/svg" width="27.709" height="24.006" viewBox="0 0 27.709 24.006">
  <rect id="Rectangle_2531" data-name="Rectangle 2531" width="27.709" height="3" rx="1.5" fill="#6b6c72"/>
  <path id="Path_19139" data-name="Path 19139" d="M21.755,0H6.31a1.553,1.553,0,0,0-1.6,1.5A1.553,1.553,0,0,0,6.31,3H21.755a1.553,1.553,0,0,0,1.6-1.5A1.553,1.553,0,0,0,21.755,0Z" transform="translate(-4.709 10.503)" fill="#6b6c72"/>
  <path id="Path_19140" data-name="Path 19140" d="M10.935,0H4.769A1.541,1.541,0,0,0,3.19,1.5,1.541,1.541,0,0,0,4.769,3h6.166a1.541,1.541,0,0,0,1.579-1.5A1.541,1.541,0,0,0,10.935,0Z" transform="translate(-3.19 21.006)" fill="#6b6c72"/>
</svg>
