<svg xmlns="http://www.w3.org/2000/svg" width="53" height="17.133" viewBox="0 0 53 17.133">
  <path id="Icon_payment-visa" data-name="Icon payment-visa" d="M11.5,20.759a1.725,1.725,0,0,0-1.941-1.4H2.622l-.051.335c4.761,1.217,8.67,3.8,10.43,8.7l-1.5-7.634ZM13.44,30.7,13,28.393A10.39,10.39,0,0,0,7.409,22.75l3.494,13.2h4.529L22.188,19.36H17.632L13.44,30.7Zm12.086,5.278,2.69-16.613h-4.3L21.229,35.974Zm11.722-16.9c-4.244,0-7.219,2.253-7.246,5.486-.027,2.382,2.122,3.7,3.752,4.5,1.683.8,2.226,1.345,2.226,2.069,0,1.113-1.345,1.605-2.561,1.605a8.142,8.142,0,0,1-4.037-.854l-.57-.285-.6,3.726A12.516,12.516,0,0,0,33,36.208c4.5.027,7.429-2.226,7.479-5.667,0-1.89-1.164-3.313-3.624-4.5-1.5-.749-2.405-1.294-2.405-2.069,0-.7.775-1.424,2.458-1.424a7.138,7.138,0,0,1,3.209.623l.388.206.594-3.6a10.676,10.676,0,0,0-3.856-.7Zm11.543.285a2.125,2.125,0,0,0-2.253,1.4L40.172,35.974h4.5c.726-2.043.907-2.485.907-2.485h5.486s.13.57.517,2.485h3.986L52.1,19.361H48.791ZM46.8,30.075s.362-.958,1.709-4.633c-.027.027.362-.958.57-1.579l.31,1.424c.8,3.96.985,4.788.985,4.788Z" transform="translate(-2.571 -19.076)" fill="#fff"/>
</svg>
