<svg xmlns="http://www.w3.org/2000/svg" width="54.063" height="17.997" viewBox="0 0 54.063 17.997">
  <g id="_365-3654057_mada-logo-png" data-name="365-3654057_mada-logo-png" transform="translate(-10 -40)">
    <g id="Group_4881" data-name="Group 4881" transform="translate(10 40)">
      <path id="Path_19179" data-name="Path 19179" d="M32.869,40.029A.029.029,0,0,0,32.84,40H10.029a.029.029,0,0,0-.029.029v7.559a.029.029,0,0,0,.029.029H32.84a.029.029,0,0,0,.029-.029V40.029" transform="translate(-10 -40)" fill="none"/>
      <path id="Path_19180" data-name="Path 19180" d="M599.3,45.068c-.014-1.727.263-3.985-1.816-4.716a3.775,3.775,0,0,0-1.019-.161q-.832-.041-1.666-.006a.042.042,0,0,0-.04.034l-.184,1.217a.03.03,0,0,0,.007.024.03.03,0,0,0,.023.01q.793.007,1.584.007c.9,0,1.291.8,1.316,1.6q.032,1.045.015,2.091a.023.023,0,0,1-.01.019.025.025,0,0,1-.022,0,1.532,1.532,0,0,0-.5-.086q-1.383,0-2.765,0a.04.04,0,0,0-.04.034l-.184,1.211a.03.03,0,0,0,.03.034h8.488c.373,0,.934-.214,1.265-.1,2.164.722,4.468.11,4.793-2.48a3.677,3.677,0,0,0-.249-1.9,3.1,3.1,0,0,0-3.6-1.745,2.192,2.192,0,0,0-1.9,1.169,4.05,4.05,0,0,0-.115,1.139q-.012,1.178-.014,2.38a.222.222,0,0,1-.25.251h-3.1a.034.034,0,0,1-.034-.034" transform="translate(-554.539 -40.106)" fill="none"/>
      <path id="Path_19181" data-name="Path 19181" d="M398.8,41.1c-1.387,0-2.819.613-2.684,2.258.171,2.092,2.436,1.735,3.867,1.744a.854.854,0,0,1,.468,1.584,1.73,1.73,0,0,1-.924.133q-3.148.011-6.3-.013a2.736,2.736,0,0,1-.9-.111c-.882-.358-.827-1.461-.811-2.247.045-2.271,1.415-1.973,3.086-1.952a.04.04,0,0,0,.041-.034l.177-1.221a.03.03,0,0,0-.03-.034q-1.19.008-2.337,0a2.831,2.831,0,0,0-2.769,3.057,6.783,6.783,0,0,0,.134,1.942c.51,1.614,1.7,1.892,3.243,1.892h6.258c1.509,0,3.284-.039,3.283-2.107a1.951,1.951,0,0,0-1.856-2.015q-.3-.033-1.755-.02a2.21,2.21,0,0,1-.672-.059.809.809,0,0,1-.239-1.284,2.087,2.087,0,0,1,1.28-.224q.693.007,3.255,0a.04.04,0,0,0,.041-.034l.184-1.2a.03.03,0,0,0-.03-.034q-2-.022-4.008-.022" transform="translate(-364.018 -41.026)" fill="none"/>
      <path id="Path_19182" data-name="Path 19182" d="M632.871,176.318l-.493-.113a2.7,2.7,0,0,0-2.763.769,4.133,4.133,0,0,0-.486,3.3c.564,2.069,2.8,2.2,4.521,1.764,1.028-.261,1.049-.515,1.049-1.584v-7.046a.031.031,0,0,0-.011-.023.029.029,0,0,0-.024-.006l-1.708.294a.059.059,0,0,0-.048.057l0,2.557a.028.028,0,0,1-.01.022.027.027,0,0,1-.023.005" transform="translate(-587.169 -164.371)" fill="none"/>
      <path id="Path_19183" data-name="Path 19183" d="M32.869,193.789a.039.039,0,0,0-.039-.039H10.039a.039.039,0,0,0-.039.039v7.524a.039.039,0,0,0,.039.039H32.831a.039.039,0,0,0,.039-.039v-7.524" transform="translate(-10 -183.362)" fill="none"/>
      <path id="Path_19184" data-name="Path 19184" d="M392,303.465a.484.484,0,0,0,.27-.005" transform="translate(-366.192 -285.66)" fill="none"/>
      <path id="Path_19185" data-name="Path 19185" d="M396,239.382h1.331a.033.033,0,0,0,.033-.034l.017-4.374a.052.052,0,0,1,.03-.048c.693-.3,1.6-.342,1.616.657q.027,1.871.017,3.768a.035.035,0,0,0,.035.034h1.7a.039.039,0,0,0,.039-.039q-.012-1.783.013-3.592a2.782,2.782,0,0,0-.089-.74.041.041,0,0,1,.022-.047c.451-.21,1.365-.4,1.64.141a1.308,1.308,0,0,1,.086.528q.025,1.555,0,3.728,0,.046.047.035" transform="translate(-369.921 -221.583)" fill="none"/>
      <path id="Path_19186" data-name="Path 19186" d="M492.75,303.71h.608" transform="translate(-460.135 -285.893)" fill="none"/>
      <path id="Path_19187" data-name="Path 19187" d="M397.038,219.311l1.085-.009a.034.034,0,0,0,.034-.034q0-1.778,0-3.554a5.311,5.311,0,0,0-.082-1.169c-.47-1.712-2.861-1.483-4.093-.918a.1.1,0,0,1-.093-.007,4.474,4.474,0,0,0-3.354-.195c-.744.2-1.052.35-1.067,1.211-.03,1.637.005,3.086.012,4.623a.036.036,0,0,0,.034.036l.114,0" transform="translate(-363.815 -201.494)" fill="none"/>
      <path id="Path_19188" data-name="Path 19188" d="M493.358,303.127a1.116,1.116,0,0,0-.608,0" transform="translate(-460.135 -285.311)" fill="none"/>
      <path id="Path_19189" data-name="Path 19189" d="M392.27,303.216a.461.461,0,0,0-.27.005" transform="translate(-366.192 -285.417)" fill="none"/>
      <path id="Path_19190" data-name="Path 19190" d="M536.657,214.75c.378.22.306.6.332.959a.032.032,0,0,1-.031.035c-1.231.054-3.556-.213-3.75,1.609-.226,2.121,1.964,2.284,3.417,1.911a1.1,1.1,0,0,1,.485-.016l1.54.29a.029.029,0,0,0,.034-.028q0-1.859,0-3.685a5.023,5.023,0,0,0-.111-1.286c-.636-1.994-3.729-1.2-5.132-.742a.042.042,0,0,0-.028.045l.173,1.193a.048.048,0,0,0,.065.038c.716-.271,2.321-.721,3.008-.322" transform="translate(-497.843 -201.541)" fill="none"/>
      <path id="Path_19191" data-name="Path 19191" d="M732.062,215.647c-1.253.028-3.49-.191-3.734,1.587-.3,2.163,2,2.269,3.432,1.926a1.1,1.1,0,0,1,.47-.011q.734.141,1.522.282a.044.044,0,0,0,.036-.01.045.045,0,0,0,.016-.035q.012-2.076-.011-4.094a3.168,3.168,0,0,0-.08-.795c-.52-1.747-3.036-1.442-4.319-1.053q-.418.127-.847.254a.039.039,0,0,0-.028.044l.186,1.215a.033.033,0,0,0,.016.023.034.034,0,0,0,.029,0,7.741,7.741,0,0,1,2.2-.476c.849-.055,1.2.239,1.146,1.1a.037.037,0,0,1-.035.035" transform="translate(-679.773 -201.445)" fill="none"/>
      <path id="Path_19192" data-name="Path 19192" d="M748.324,65.552c1.305,0,1.473-1.272,1.334-2.265-.08-.578-.322-1.07-.922-1.169a2.882,2.882,0,0,0-1.549.207.038.038,0,0,0-.023.045,2.061,2.061,0,0,1,.072.453q0,1.29,0,2.581a.041.041,0,0,0,.034.04,5.058,5.058,0,0,0,1.05.107" transform="translate(-697.359 -60.594)" fill="none"/>
      <path id="Path_19193" data-name="Path 19193" d="M655.355,235.926c.084,1.335.9,1.64,2.094,1.347a.044.044,0,0,0,.034-.043v-3.061a.077.077,0,0,0-.053-.073c-1.64-.557-2.17.331-2.075,1.83" transform="translate(-611.744 -220.826)" fill="none"/>
      <path id="Path_19194" data-name="Path 19194" d="M558.746,267.037c.405.492,1.4.207,1.894.045a.087.087,0,0,0,.06-.086l-.022-1.106a.036.036,0,0,0-.034-.036,7.685,7.685,0,0,0-1.4.031.73.73,0,0,0-.5,1.151" transform="translate(-521.531 -250.583)" fill="none"/>
      <path id="Path_19195" data-name="Path 19195" d="M754.324,266.988c.455.311,1.289.083,1.786-.08a.062.062,0,0,0,.043-.059v-1.105a.059.059,0,0,0-.058-.059c-.611-.012-1.779-.18-2,.561a.641.641,0,0,0,.228.742" transform="translate(-703.792 -250.415)" fill="none"/>
    </g>
    <rect id="Rectangle_2532" data-name="Rectangle 2532" width="22.869" height="7.617" rx="0.43" transform="translate(10 40)" fill="#fff"/>
    <path id="Path_19197" data-name="Path 19197" d="M599.336,45.1h3.1a.222.222,0,0,0,.25-.251q0-1.2.014-2.38a4.05,4.05,0,0,1,.115-1.139,2.192,2.192,0,0,1,1.9-1.169,3.1,3.1,0,0,1,3.6,1.745,3.677,3.677,0,0,1,.249,1.9c-.326,2.59-2.63,3.2-4.793,2.48-.33-.11-.892.1-1.265.1h-8.488a.03.03,0,0,1-.03-.034l.184-1.211a.04.04,0,0,1,.04-.034q1.382-.007,2.765,0a1.532,1.532,0,0,1,.5.086.025.025,0,0,0,.022,0,.023.023,0,0,0,.01-.019q.018-1.046-.015-2.091c-.025-.8-.419-1.6-1.316-1.6q-.792,0-1.584-.007a.03.03,0,0,1-.023-.01.03.03,0,0,1-.007-.024l.184-1.217a.042.042,0,0,1,.04-.034q.833-.035,1.666.006a3.775,3.775,0,0,1,1.019.161c2.079.732,1.8,2.99,1.816,4.716A.034.034,0,0,0,599.336,45.1Zm6.168-.038c1.305,0,1.473-1.272,1.334-2.265-.08-.578-.322-1.07-.922-1.169a2.882,2.882,0,0,0-1.548.207.038.038,0,0,0-.023.045,2.054,2.054,0,0,1,.072.453q0,1.29,0,2.581a.041.041,0,0,0,.034.04A5.059,5.059,0,0,0,605.5,45.064Z" transform="translate(-544.539 -0.106)" fill="#fff"/>
    <path id="Path_19198" data-name="Path 19198" d="M396.111,43.358c-.135-1.644,1.3-2.259,2.684-2.258q2,0,4.008.022a.03.03,0,0,1,.03.034l-.184,1.2a.04.04,0,0,1-.041.034q-2.562.011-3.255,0a2.087,2.087,0,0,0-1.28.224.809.809,0,0,0,.239,1.284,2.21,2.21,0,0,0,.672.059q1.455-.013,1.755.02A1.951,1.951,0,0,1,402.593,46c0,2.068-1.773,2.107-3.283,2.107h-6.258c-1.54,0-2.733-.278-3.243-1.892a6.783,6.783,0,0,1-.134-1.942,2.831,2.831,0,0,1,2.769-3.057q1.147,0,2.337,0a.03.03,0,0,1,.03.034l-.177,1.221a.04.04,0,0,1-.041.034c-1.671-.022-3.04-.319-3.086,1.952-.016.786-.07,1.889.811,2.247a2.735,2.735,0,0,0,.9.111q3.148.024,6.3.013a1.73,1.73,0,0,0,.924-.133.854.854,0,0,0-.468-1.584C398.546,45.093,396.282,45.45,396.111,43.358Z" transform="translate(-354.018 -1.026)" fill="#fff"/>
    <path id="Path_19200" data-name="Path 19200" d="M632.9,176.291l0-2.557a.058.058,0,0,1,.048-.057l1.708-.294a.029.029,0,0,1,.024.006.031.031,0,0,1,.011.023v7.046c0,1.069-.021,1.322-1.049,1.584-1.725.439-3.956.3-4.521-1.764a4.133,4.133,0,0,1,.486-3.3,2.7,2.7,0,0,1,2.763-.769l.493.113a.027.027,0,0,0,.023-.005A.028.028,0,0,0,632.9,176.291Zm-2.124,3.18c.084,1.335.9,1.64,2.094,1.347a.044.044,0,0,0,.034-.043v-3.061a.077.077,0,0,0-.053-.073C631.216,177.083,630.685,177.972,630.78,179.471Z" transform="translate(-577.169 -124.371)" fill="#fff"/>
    <rect id="Rectangle_2533" data-name="Rectangle 2533" width="22.869" height="7.601" rx="0.57" transform="translate(10 50.388)" fill="#97989f"/>
    <path id="Path_19201" data-name="Path 19201" d="M397.038,219.311a1.115,1.115,0,0,0-.608,0q-.047.011-.047-.035.026-2.173,0-3.728a1.308,1.308,0,0,0-.086-.528c-.274-.54-1.188-.351-1.64-.141a.041.041,0,0,0-.022.047,2.777,2.777,0,0,1,.089.74q-.025,1.809-.013,3.592a.039.039,0,0,1-.039.039h-1.7a.034.034,0,0,1-.034-.034q.01-1.9-.017-3.768c-.015-1-.924-.954-1.616-.657a.052.052,0,0,0-.03.048l-.017,4.374a.033.033,0,0,1-.033.034h-1.331a.461.461,0,0,0-.27.005l-.114,0a.036.036,0,0,1-.034-.036c-.007-1.536-.043-2.986-.012-4.623.016-.861.324-1.008,1.067-1.211a4.474,4.474,0,0,1,3.354.195.1.1,0,0,0,.093.007c1.232-.565,3.623-.794,4.093.918a5.311,5.311,0,0,1,.082,1.169q0,1.777,0,3.554a.034.034,0,0,1-.034.034Z" transform="translate(-353.815 -161.494)" fill="#fff"/>
    <path id="Path_19202" data-name="Path 19202" d="M536.657,214.75c-.687-.4-2.292.051-3.008.322a.048.048,0,0,1-.065-.038l-.173-1.193a.042.042,0,0,1,.028-.045c1.4-.461,4.5-1.251,5.132.742a5.023,5.023,0,0,1,.111,1.286q0,1.826,0,3.685a.029.029,0,0,1-.034.028l-1.54-.29a1.1,1.1,0,0,0-.485.016c-1.453.373-3.643.21-3.417-1.911.194-1.821,2.519-1.555,3.75-1.609a.032.032,0,0,0,.031-.035C536.963,215.353,537.035,214.969,536.657,214.75Zm-1.6,3.246c.405.492,1.4.207,1.895.045a.088.088,0,0,0,.06-.086l-.022-1.106a.036.036,0,0,0-.034-.036,7.682,7.682,0,0,0-1.4.031A.73.73,0,0,0,535.058,218Z" transform="translate(-487.843 -161.541)" fill="#fff"/>
    <path id="Path_19203" data-name="Path 19203" d="M732.1,215.612c.049-.865-.3-1.16-1.146-1.1a7.741,7.741,0,0,0-2.2.476.034.034,0,0,1-.029,0,.033.033,0,0,1-.016-.023l-.186-1.215a.039.039,0,0,1,.028-.044q.429-.127.847-.254c1.283-.39,3.8-.695,4.319,1.053a3.168,3.168,0,0,1,.08.795q.024,2.018.011,4.094a.045.045,0,0,1-.016.035.044.044,0,0,1-.036.01q-.788-.14-1.522-.282a1.1,1.1,0,0,0-.47.011c-1.428.343-3.729.237-3.432-1.926.244-1.778,2.48-1.559,3.734-1.587a.036.036,0,0,0,.035-.035Zm-1.792,2.407c.455.311,1.289.083,1.786-.08a.062.062,0,0,0,.043-.059v-1.105a.059.059,0,0,0-.058-.059c-.611-.011-1.779-.18-2,.561A.641.641,0,0,0,730.3,218.019Z" transform="translate(-669.773 -161.445)" fill="#fff"/>
    <path id="Path_19207" data-name="Path 19207" d="M493.358,303.127h-.608A1.116,1.116,0,0,1,493.358,303.127Z" transform="translate(-450.135 -245.311)" fill="#fff"/>
    <path id="Path_19208" data-name="Path 19208" d="M392.27,303.216a.484.484,0,0,1-.27.005A.461.461,0,0,1,392.27,303.216Z" transform="translate(-356.192 -245.417)" fill="#fff"/>
  </g>
</svg>
