<svg id="noun-credit-card-5770200" xmlns="http://www.w3.org/2000/svg" width="30.917" height="21.586" viewBox="0 0 30.917 21.586">
  <path id="Union_5" data-name="Union 5" d="M5.024,21.586H4.934A4.925,4.925,0,0,1,0,16.68V4.906A4.925,4.925,0,0,1,4.934,0h21.05a4.925,4.925,0,0,1,4.934,4.906V16.68a4.926,4.926,0,0,1-4.934,4.906Zm20.96-1.962a2.956,2.956,0,0,0,2.96-2.944V11.12H1.973v5.56a2.955,2.955,0,0,0,2.96,2.944h21.05ZM1.973,9.157H28.944V7.195H1.973Zm0-4.251v.327H28.944V4.906a2.955,2.955,0,0,0-2.96-2.944H4.934A2.955,2.955,0,0,0,1.973,4.906Zm2.96,11.447a.981.981,0,1,1,0-1.962H8.881a.981.981,0,1,1,0,1.962Z" fill="#fff"/>
</svg>
