<svg xmlns="http://www.w3.org/2000/svg" width="36.518" height="22.542" viewBox="0 0 36.518 22.542">
  <g id="Group_4882" data-name="Group 4882" transform="translate(-8821.148 -749.682)">
    <path id="Path_19176" data-name="Path 19176" d="M30.407,44.081a11.278,11.278,0,0,0-1.581,16.213,10.451,10.451,0,0,0,1.155,1.171q.348.3.415.362a11.268,11.268,0,1,1,.011-17.746Z" transform="translate(8809 708)" fill="#b5b5b5"/>
    <path id="Path_19177" data-name="Path 19177" d="M411,61.888a11.3,11.3,0,0,0,.3-17.476q-.225-.191-.278-.248a9.448,9.448,0,0,1,1.51-1.013A11.27,11.27,0,1,1,411,61.888Z" transform="translate(8428.43 707.928)" fill="#dadada"/>
    <path id="Path_19178" data-name="Path 19178" d="M320.868,94.04a.113.113,0,0,0,.046.011q.053.057.278.248a11.3,11.3,0,0,1-.3,17.476l-.034.011q-.067-.064-.415-.362a10.451,10.451,0,0,1-1.155-1.171A11.278,11.278,0,0,1,320.868,94.04Z" transform="translate(8518.54 658.042)" fill="#c9c9c9"/>
  </g>
</svg>
