<svg xmlns="http://www.w3.org/2000/svg" width="50.426" height="77.173" viewBox="0 0 50.426 77.173">
  <g id="noun-easy-2036017" transform="translate(-168.963 -0.071)">
    <path id="Path_42" data-name="Path 42" d="M176.587,116.8a1.205,1.205,0,0,0,0,1.706l10.642,10.648a1.206,1.206,0,0,0,1.705-1.706L178.287,116.8a1.205,1.205,0,0,0-1.7,0Z" transform="translate(-6.269 -100.353)" fill="#ee3b59"/>
    <path id="Path_43" data-name="Path 43" d="M413.44,61.051V46.185a1.205,1.205,0,1,0-2.41,0V61.051a1.205,1.205,0,1,0,2.41,0Z" transform="translate(-208.725 -38.723)" fill="#ee3b59"/>
    <path id="Path_44" data-name="Path 44" d="M277.981.977a1.207,1.207,0,0,0-2.338.6l3.616,14.462a1.207,1.207,0,0,0,2.338-.6Z" transform="translate(-91.953 0)" fill="#ee3b59"/>
    <path id="Path_45" data-name="Path 45" d="M170.137,198.536c3.785,5.423,3.754,7.87,3.73,10.244-.181,17.259,11.781,22.592,18.885,23.019.542.03,1.066.048,1.591.048a23.24,23.24,0,0,0,17.475-7.611l3.947-4.351.066-.079,1.958-2.163a5.46,5.46,0,0,0-2.712-9.2,4.905,4.905,0,0,0-4.188-6.177,5.055,5.055,0,0,0,.3-1.687,5.424,5.424,0,0,0-4.363-5.333l6.538-6.562a5.454,5.454,0,1,0-7.834-7.587c-7.165,7.647-16.071,16.349-19.585,17.776-2.049.844-2.543.187-4.128-2.41a19.062,19.062,0,0,0-4.314-5.363,4.977,4.977,0,0,0-6.568-.132c-2.3,1.814-2.627,4.935-.8,7.563Zm43.779,12.209a3.016,3.016,0,0,1,2.152.892,3.066,3.066,0,0,1-.042,4.35l-1.91,2.1a2.773,2.773,0,0,1-3.122-.524l-.109-.115h0a2.791,2.791,0,0,1-.229-3.73l3.013-3.013Zm-1.808-5.387a2.495,2.495,0,0,1,.145,3.387,1.183,1.183,0,0,0-.138.151l-3.459,3.459a2.785,2.785,0,0,1-2.881-.6l-.145-.145a2.814,2.814,0,0,1-.168-3.712c.482-.373,2.5-1.97,3.574-2.892h0a2.512,2.512,0,0,1,3.062.355Zm-4.218-6.936a3.014,3.014,0,0,1,.892,2.152,3.814,3.814,0,0,1-1.265,2.543c-.735.639-2.32,1.91-3.489,2.826a2.891,2.891,0,0,1-2.85-.747l-.079-.079a2.928,2.928,0,0,1,0-4.14l2.832-2.832a3.012,3.012,0,0,1,3.953.271Zm-35.451-5.586a2.561,2.561,0,0,1,3.549.115,16.806,16.806,0,0,1,3.772,4.736,12.81,12.81,0,0,0,2.085,2.862c.023.033.047.066.072.1.1.109,2.41,2.633.06,6.3a1.205,1.205,0,0,0,2.031,1.3,7.834,7.834,0,0,0,1.109-6.629,6.841,6.841,0,0,0,1.735-.476c4.742-1.947,15.86-13.486,20.428-18.36a3.013,3.013,0,0,1,2.169-.964,3.046,3.046,0,0,1,2.205,5.2L199.387,199.26a5.339,5.339,0,0,0,0,7.569l.066.066a5.294,5.294,0,0,0,3.08,1.513,5.243,5.243,0,0,0,1.374,4.923l.048.042.048.048h0a5.2,5.2,0,0,0,3.676,1.507,5.176,5.176,0,0,0,1.495,4.218l.09.1a5.23,5.23,0,0,0,2.537,1.4l-1.808,1.994-.048.054h0A21.141,21.141,0,0,1,192.9,229.39a18.845,18.845,0,0,1-8.7-3.013,25.011,25.011,0,0,1-4.791-4.869c-1.886-2.977-3.182-7.062-3.122-12.709.036-3.188-.253-6.068-4.164-11.66a3.046,3.046,0,0,1,.32-4.3Z" transform="translate(0 -154.605)" fill="#ee3b59"/>
    <path id="Path_46" data-name="Path 46" d="M313.774,163.32l-2.664.385,1.928,1.88-.458,2.651,2.38-1.254,2.38,1.254-.458-2.651,1.928-1.88-2.664-.385-1.187-2.41Z" transform="translate(-122.568 -138.686)" fill="#ee3b59"/>
    <path id="Path_47" data-name="Path 47" d="M346.2,49.995l.813,1.831.964-1.765,1.994-.2L348.59,48.4l.422-1.965-1.814.862-1.741-1.006.259,1.994-1.494,1.343Z" transform="translate(-151.118 -39.852)" fill="#ee3b59"/>
    <path id="Path_48" data-name="Path 48" d="M220.658,58.692l-1.452-1.38-.217,1.994-1.766.958,1.832.819.367,1.977,1.344-1.495,1.994.265-1.007-1.742.868-1.808Z" transform="translate(-41.613 -49.357)" fill="#ee3b59"/>
  </g>
</svg>
