<svg xmlns="http://www.w3.org/2000/svg" width="50.918" height="72.738" viewBox="0 0 50.918 72.738">
  <g id="noun-instant-4728985" transform="translate(-166.244 -17.513)">
    <path id="Path_49" data-name="Path 49" d="M212.314,56.3H190.648L207.13,38.955a1.213,1.213,0,0,0-.531-2l-11.114-3.334,2.266-14.717a1.22,1.22,0,0,0-2.081-1.016L176.273,38.5a1.212,1.212,0,0,0,.534,1.992l10.948,3.284-3.915,12.527H171.094a4.9,4.9,0,0,0-4.849,4.849V85.4a4.854,4.854,0,0,0,4.849,4.849h41.219a4.854,4.854,0,0,0,4.849-4.849V61.155a4.9,4.9,0,0,0-4.849-4.849ZM190.436,43.33a1.22,1.22,0,0,0-.809-1.523l-10.244-3.073,15.379-16.339L192.93,34.3a1.212,1.212,0,0,0,.85,1.346l10.236,3.07L185.931,57.751l4.507-14.42Zm-19.342,15.4h11.99L182.061,62a1.212,1.212,0,0,0,2.036,1.2l4.248-4.471c.169.016,23.985-.03,24.137.016l-18.506,14.8a3.658,3.658,0,0,1-4.546,0l-18.5-14.8c.057,0,.112-.016.169-.016ZM214.738,85.4a2.427,2.427,0,0,1-2.425,2.425H171.094A2.427,2.427,0,0,1,168.67,85.4V61.154a2.4,2.4,0,0,1,.2-.949l19.047,15.231a6.1,6.1,0,0,0,7.577,0L214.54,60.2a2.409,2.409,0,0,1,.2.949Z" transform="translate(0 0)" fill="#ee3b59"/>
    <path id="Path_50" data-name="Path 50" d="M412.2,454.99h-6.062a3.637,3.637,0,0,0,0,7.274H412.2A3.637,3.637,0,0,0,412.2,454.99Zm0,4.849h-6.062a1.212,1.212,0,0,1,0-2.425H412.2A1.212,1.212,0,0,1,412.2,459.839Z" transform="translate(-203.522 -376.864)" fill="#ee3b59"/>
    <path id="Path_51" data-name="Path 51" d="M481.25,158.7a1.212,1.212,0,0,0,1.212,1.212H486.1a1.212,1.212,0,1,0,0-2.425h-3.637A1.212,1.212,0,0,0,481.25,158.7Z" transform="translate(-271.361 -120.583)" fill="#ee3b59"/>
    <path id="Path_52" data-name="Path 52" d="M474.117,104.258c.107.107,3.628-1.268,3.832-1.318a1.212,1.212,0,0,0-.83-2.278l-3.417,1.244a1.216,1.216,0,0,0,.415,2.352Z" transform="translate(-264.185 -71.56)" fill="#ee3b59"/>
    <path id="Path_53" data-name="Path 53" d="M185.883,102.936c.213.054,3.717,1.423,3.832,1.317a1.217,1.217,0,0,0,.414-2.353l-3.418-1.244a1.213,1.213,0,0,0-.829,2.279Z" transform="translate(-16.238 -71.558)" fill="#ee3b59"/>
    <path id="Path_54" data-name="Path 54" d="M176.321,159.895h3.637a1.212,1.212,0,0,0,0-2.425h-3.637A1.212,1.212,0,0,0,176.321,159.895Z" transform="translate(-7.652 -120.566)" fill="#ee3b59"/>
    <path id="Path_55" data-name="Path 55" d="M189.3,205.4l-3.417,1.244a1.213,1.213,0,0,0,.829,2.279l3.417-1.244A1.213,1.213,0,0,0,189.3,205.4Z" transform="translate(-16.236 -161.786)" fill="#ee3b59"/>
    <path id="Path_56" data-name="Path 56" d="M473.658,207.687l3.418,1.244a1.212,1.212,0,0,0,.83-2.278l-3.418-1.244a1.212,1.212,0,0,0-.83,2.278Z" transform="translate(-264.142 -161.795)" fill="#ee3b59"/>
  </g>
</svg>
