<svg id="noun-customer-support-5259421" xmlns="http://www.w3.org/2000/svg" width="65.561" height="70.849" viewBox="0 0 65.561 70.849">
  <path id="Path_57" data-name="Path 57" d="M103.506,52.8V43.988a31.6,31.6,0,1,1,63.2,0V52.8a5.648,5.648,0,0,1,1.179,3.425v5.985a5.713,5.713,0,0,1-5.7,5.7h-1.258a5.311,5.311,0,0,1-10.613-.314V50.838a5.309,5.309,0,0,1,9.613-3.122V43.988a24.813,24.813,0,1,0-49.626,0v3.728a5.309,5.309,0,0,1,9.613,3.122V67.6a5.311,5.311,0,0,1-10.613.314h-1.258a.9.9,0,0,1-.169-.022V71a6.063,6.063,0,0,0,6.053,6.053H130.4a5.1,5.1,0,1,1,0,2.179H113.915a8.224,8.224,0,0,1-8.22-8.22V67.413a5.719,5.719,0,0,1-3.369-5.188v-6a5.621,5.621,0,0,1,1.179-3.425Zm31.881,28.254a2.931,2.931,0,1,0-2.942-2.92A2.921,2.921,0,0,0,135.387,81.058Zm30.332-18.844V56.229a3.571,3.571,0,0,0-3.537-3.548h-1.224v13.06h1.224a3.535,3.535,0,0,0,3.537-3.527Zm-10.1-14.531a3.159,3.159,0,0,0-3.156,3.156V67.605a3.156,3.156,0,0,0,6.312,0V50.839a3.158,3.158,0,0,0-3.155-3.156ZM116.027,24.9a26.991,26.991,0,0,1,46.065,19.091v6.525h.09a5.644,5.644,0,0,1,2.358.516V43.988a29.434,29.434,0,1,0-58.867,0v7.041a5.64,5.64,0,0,1,2.358-.516h.09V43.988a26.9,26.9,0,0,1,7.906-19.09Zm-1.438,45.851a3.159,3.159,0,0,0,3.156-3.156V50.838a3.156,3.156,0,0,0-6.312,0V67.594a3.159,3.159,0,0,0,3.156,3.155Zm-10.1-8.535a3.537,3.537,0,0,0,3.537,3.537h1.224V52.679h-1.224a3.551,3.551,0,0,0-3.537,3.548Z" transform="translate(-102.326 -12.387)" fill="#ee3b59"/>
  <path id="Path_58" data-name="Path 58" d="M281.828,411.486a1.079,1.079,0,0,1-.214-1.516l3.347-4.436a1.082,1.082,0,1,1,1.729,1.3l-3.347,4.436a1.085,1.085,0,0,1-.865.427,1,1,0,0,1-.651-.213Z" transform="translate(-245.049 -353.125)" fill="#ee3b59"/>
  <path id="Path_59" data-name="Path 59" d="M371.077,405.58l3.347,4.436a1.077,1.077,0,0,1-.214,1.516,1.077,1.077,0,0,1-1.516-.2l-3.347-4.436a1.086,1.086,0,0,1,1.73-1.314Z" transform="translate(-344.394 -353.17)" fill="#ee3b59"/>
  <path id="Path_60" data-name="Path 60" d="M340.049,395.379v5.862a1.089,1.089,0,0,1-2.179,0v-5.862a1.089,1.089,0,1,1,2.179,0Z" transform="translate(-305.663 -343.744)" fill="#ee3b59"/>
  <path id="Path_61" data-name="Path 61" d="M279.5,191.015a.265.265,0,0,0-.236.124l-2.5,3.739a2.462,2.462,0,0,1-4.087,0l-2.516-3.751a.293.293,0,0,0-.236-.124h-3.4a3.661,3.661,0,0,1-3.661-3.661V176.764a3.681,3.681,0,0,1,3.672-3.672h15.722a3.661,3.661,0,0,1,3.661,3.661v10.578A3.681,3.681,0,0,1,282.242,191H279.5Zm4.234-3.672V176.764a1.481,1.481,0,0,0-1.482-1.482H266.52a1.493,1.493,0,0,0-1.494,1.494v10.578a1.481,1.481,0,0,0,1.482,1.482h3.4a2.455,2.455,0,0,1,2.044,1.089l2.516,3.751a.287.287,0,0,0,.471,0l2.5-3.739a2.457,2.457,0,0,1,2.044-1.089h2.751a1.5,1.5,0,0,0,1.494-1.5Z" transform="translate(-241.601 -151.822)" fill="#ee3b59"/>
  <path id="Path_62" data-name="Path 62" d="M311.407,217.608H300.1a1.089,1.089,0,1,1,0-2.179h11.308a1.089,1.089,0,1,1,0,2.179Z" transform="translate(-272.967 -188.556)" fill="#ee3b59"/>
  <path id="Path_63" data-name="Path 63" d="M305.8,253.5h-5.7a1.089,1.089,0,1,1,0-2.179h5.7a1.089,1.089,0,1,1,0,2.179Z" transform="translate(-267.364 -219.696)" fill="#ee3b59"/>
</svg>
