<svg xmlns="http://www.w3.org/2000/svg" width="171" height="43.259" viewBox="0 0 171 43.259">
  <path id="Union_3" data-name="Union 3" d="M-1362.9,93.532a36.035,36.035,0,0,1-17.549-5.417,37.642,37.642,0,0,1-6.016-4.657,32.715,32.715,0,0,1-4.023-4.524,4.955,4.955,0,0,1-.967-2.769,5.347,5.347,0,0,1,.109-1.32,5.1,5.1,0,0,1,2.155-3.232,5.376,5.376,0,0,1,3.419-1.009,5.131,5.131,0,0,1,1.314.231,5.284,5.284,0,0,1,2.069,1.215q.206.194.874,1a26.652,26.652,0,0,0,10.072,7.547,26.315,26.315,0,0,0,7.126,1.954,26.682,26.682,0,0,0,12.376-1.29,5.35,5.35,0,0,1,2.5-.26,5.206,5.206,0,0,1,1.288.345,5.246,5.246,0,0,1,2.659,2.393,5.294,5.294,0,0,1,.669,2.238,5.161,5.161,0,0,1-.085,1.321,5.133,5.133,0,0,1-1.563,2.833,5.078,5.078,0,0,1-1.32.895q-.325.154-1.248.479a36.2,36.2,0,0,1-12.1,2.068Q-1362.008,93.573-1362.9,93.532Zm87.649-4.085a2.8,2.8,0,0,1-2.567-2.212,2.311,2.311,0,0,1-.059-.66,35.065,35.065,0,0,1,1.046-7.54.158.158,0,0,0-.036-.147,10.043,10.043,0,0,1-2.3-4.18,9.984,9.984,0,0,1-.254-4.07,8.205,8.205,0,0,1,2.811-5.153,7.882,7.882,0,0,1,3.413-1.759,7.594,7.594,0,0,1,1.323-.192,8.662,8.662,0,0,1,3.134.408,4.1,4.1,0,0,1,2.029,1.366,4.034,4.034,0,0,1,.633,1.162,3.889,3.889,0,0,1-.276,3.348q-.044.077-.743,1.1a30.6,30.6,0,0,0-2.893,5.312.033.033,0,0,0,0,.031.033.033,0,0,0,.027.016,6.5,6.5,0,0,0,2.584-.4q.25-.094.5-.185a3.892,3.892,0,0,1,.513-.156,2.7,2.7,0,0,1,1.793.218,2.7,2.7,0,0,1,1.388,1.5,2.825,2.825,0,0,1,.163,1.3,2.691,2.691,0,0,1-1.752,2.3,11.826,11.826,0,0,1-6.874.819.035.035,0,0,0-.04.027,30.982,30.982,0,0,0-.574,4.751,4.633,4.633,0,0,1-.118.991,2.689,2.689,0,0,1-.539,1,2.844,2.844,0,0,1-1.973,1Zm3.7-20.937a4.853,4.853,0,0,0-.841.1,2.944,2.944,0,0,0-1.671,1,2.842,2.842,0,0,0-.67,1.427,3.882,3.882,0,0,0,.44,2.482q.028.051.051,0a30.5,30.5,0,0,1,2.72-4.953c.023-.035.015-.051-.023-.051ZM-1311.9,81.9a2.709,2.709,0,0,1-1.441-.894,2.782,2.782,0,0,1-.669-1.872q0-5.786,0-11.581a.029.029,0,0,0-.01-.022.03.03,0,0,0-.024-.006,45.4,45.4,0,0,1-11.356.808,13.142,13.142,0,0,1-1.332-.109,2.582,2.582,0,0,1-1.23-.625,2.737,2.737,0,0,1-.932-2.445,2.591,2.591,0,0,1,.481-1.22,2.71,2.71,0,0,1,1.829-1.181,7.883,7.883,0,0,1,1.335,0,43.029,43.029,0,0,0,4.383.006,38.01,38.01,0,0,0,5.725-.722,33.577,33.577,0,0,0,14.876-7.116,2.8,2.8,0,0,1,1.708-.665,2.829,2.829,0,0,1,1.3.26,2.662,2.662,0,0,1,1.475,1.623,2.781,2.781,0,0,1,.131,1.307,2.65,2.65,0,0,1-.65,1.417,10.453,10.453,0,0,1-1.01.87,38.962,38.962,0,0,1-11.041,6.192.046.046,0,0,0-.031.044q-.007,6.354,0,12.709a5.5,5.5,0,0,1-.1,1.3,2.685,2.685,0,0,1-.7,1.17,2.748,2.748,0,0,1-1.38.773,2.861,2.861,0,0,1-.617.068A2.961,2.961,0,0,1-1311.9,81.9Zm22.89-.408a3.4,3.4,0,0,1-1.485-1.418,7.789,7.789,0,0,1-.481-1.236q-.728-2.247-1.417-4.462c-.023-.073-.045-.073-.067,0q-.632,2.151-1.272,4.274a8.322,8.322,0,0,1-.449,1.249,3.567,3.567,0,0,1-1.758,1.637,3.7,3.7,0,0,1-1.334.305h-.435a3.6,3.6,0,0,1-3.03-1.858,6.884,6.884,0,0,1-.478-1.237q-2.344-7.574-3.253-10.618a2.5,2.5,0,0,1,.105-1.7,2.712,2.712,0,0,1,2.206-1.77,2.662,2.662,0,0,1,1.511.218,2.739,2.739,0,0,1,1.38,1.252,10.258,10.258,0,0,1,.437,1.254q.649,2.106,1.293,4.213c.016.052.031.052.047,0q.559-1.923,1.14-3.844a3.744,3.744,0,0,1,.761-1.339,3.937,3.937,0,0,1,2.995-1.427,4.038,4.038,0,0,1,1.856.379,3.9,3.9,0,0,1,1.981,2.013,7.914,7.914,0,0,1,.28.784q.565,1.8,1.142,3.6.029.091.056,0,.622-2.121,1.27-4.274.348-1.155.4-1.268a2.77,2.77,0,0,1,1.869-1.593,2.537,2.537,0,0,1,1.069-.056,2.716,2.716,0,0,1,2.054,1.321,2.678,2.678,0,0,1,.4,1.479,5.218,5.218,0,0,1-.25,1.2q-1.463,4.948-2.946,9.889-.3,1.017-.35,1.128a3.743,3.743,0,0,1-.614,1.024,3.551,3.551,0,0,1-2.055,1.211,4.117,4.117,0,0,1-.84.089A3.854,3.854,0,0,1-1289.006,81.494Zm28.562-.278a2.649,2.649,0,0,1-.885-1.367,4.929,4.929,0,0,1-.1-1.168V61.2a5.739,5.739,0,0,1,.1-1.3,2.684,2.684,0,0,1,.667-1.167,2.8,2.8,0,0,1,1.727-.859,2.64,2.64,0,0,1,1.444.214,2.877,2.877,0,0,1,1.051.8,2.719,2.719,0,0,1,.592,1.309,12.163,12.163,0,0,1,.04,1.327V78.646a5.024,5.024,0,0,1-.095,1.14,2.661,2.661,0,0,1-1.157,1.629,2.893,2.893,0,0,1-1.243.456,2.924,2.924,0,0,1-.361.023A2.715,2.715,0,0,1-1260.445,81.216Zm-.962-20.62q-.007,9.212.006,18.424,0,.234,0-.016.015-9.2-.007-18.408Zm34.3,21.276a13.855,13.855,0,0,1-3.021-.49,9.231,9.231,0,0,1-3.852-2.137,8.159,8.159,0,0,1-.9-.983,9.9,9.9,0,0,1-2.131-6.481,9.464,9.464,0,0,1,.119-1.322,8.137,8.137,0,0,1,2.026-4.218,8.488,8.488,0,0,1,2.937-2.1,7.137,7.137,0,0,1,1.268-.418,8.222,8.222,0,0,1,4.443.216,3.943,3.943,0,0,1,2.818,3.031,3.818,3.818,0,0,1-.25,2.5,8.977,8.977,0,0,1-.7,1.125,31.613,31.613,0,0,0-3.114,5.637.035.035,0,0,0,0,.032.034.034,0,0,0,.028.016,6.6,6.6,0,0,0,3.042-.574,2.673,2.673,0,0,1,1.078-.229,2.891,2.891,0,0,1,1.062.191,2.71,2.71,0,0,1,1.016.678,2.9,2.9,0,0,1,.619,1.013,2.633,2.633,0,0,1-.12,2.108,2.736,2.736,0,0,1-1.282,1.3q-.259.13-.9.366-.372.137-.923.314a9.022,9.022,0,0,1-2.788.44Q-1226.871,81.884-1227.109,81.872Zm-3.774-12.748a2.99,2.99,0,0,0-.871.992,3.086,3.086,0,0,0-.367,1.433,3.943,3.943,0,0,0,.5,1.987c.011.02.021.019.03,0a32.065,32.065,0,0,1,2.726-4.98c.013-.019.008-.028-.014-.028h-.107A3.111,3.111,0,0,0-1230.882,69.124Zm-15.326,12.756a4,4,0,0,1-2.563-.881,3.958,3.958,0,0,1-.96-1.116,9.384,9.384,0,0,1-.524-1.221q-1.943-5.168-3.877-10.34a2.307,2.307,0,0,1-.129-.951,2.95,2.95,0,0,1,.2-.92,2.705,2.705,0,0,1,1.53-1.541,2.7,2.7,0,0,1,1.1-.212,2.882,2.882,0,0,1,1.074.227,2.689,2.689,0,0,1,1.189.948,6.068,6.068,0,0,1,.556,1.2q1.192,3.168,2.371,6.311.028.071.054,0,2.612-7.06,5.233-14.116a5.2,5.2,0,0,1,.512-1.1,2.68,2.68,0,0,1,1.222-.962,2.889,2.889,0,0,1,1.31-.2,2.69,2.69,0,0,1,1.472.566,2.831,2.831,0,0,1,.825,1.029,2.679,2.679,0,0,1,.2,1.8q-.038.164-.441,1.255-3.155,8.532-6.316,17.061a7.952,7.952,0,0,1-.532,1.217,4,4,0,0,1-1.108,1.2,4.008,4.008,0,0,1-2.385.739ZM-1348.156,71.85a3.462,3.462,0,0,1-2.214-.908,3.345,3.345,0,0,1-1.025-1.665q-1.839-6.868-3.639-13.744a8.071,8.071,0,0,1-.247-1.282,1.93,1.93,0,0,1,.147-.965,1.813,1.813,0,0,1,.594-.73,2.343,2.343,0,0,1,1.2-.446,2.845,2.845,0,0,1,1.916.474,4.524,4.524,0,0,1,1.675,1.988,10.7,10.7,0,0,1,.393,1.268q1.709,6.418,3.424,12.834a4.119,4.119,0,0,1,.175,1.024,2.129,2.129,0,0,1-.99,1.792,1.99,1.99,0,0,1-.679.3,2.452,2.452,0,0,1-.579.063Q-1348.079,71.853-1348.156,71.85Zm7.492-.45a3.457,3.457,0,0,1-2.087-.983,3.372,3.372,0,0,1-.828-1.27q-.12-.326-.247-.784-2.446-8.793-3.566-13.012a2.791,2.791,0,0,1-.058-.851,1.456,1.456,0,0,1,.836-1.324,2.151,2.151,0,0,1,.918-.212,2.815,2.815,0,0,1,.911.146,3.342,3.342,0,0,1,1.332.789,5.028,5.028,0,0,1,1.361,2.361l.123.464q1.714,5.95,3.412,11.9a3.361,3.361,0,0,1,.166.924,1.834,1.834,0,0,1-.28.925,1.867,1.867,0,0,1-1.682.943A2.811,2.811,0,0,1-1340.664,71.4Zm-23.4-1.606a5.545,5.545,0,0,1-.989-.826q-1.8-1.77-3.613-3.576a.038.038,0,0,0-.029-.011.039.039,0,0,0-.028.015q-1.339,1.784-2.685,3.564a4.228,4.228,0,0,1-.774.851,1.9,1.9,0,0,1-1.16.328,1.862,1.862,0,0,1-.691-.156,3.375,3.375,0,0,1-.589-.371q-2.22-1.638-2.78-2.067a2.118,2.118,0,0,1-.687-.919,2.3,2.3,0,0,1,.006-1.89,9.138,9.138,0,0,1,.756-1.093l2.922-3.883a.054.054,0,0,0-.005-.072q-2.659-2.626-5.257-5.235a1.52,1.52,0,0,1-.442-1,1.642,1.642,0,0,1,.507-1.351l.85-.833a3.28,3.28,0,0,1,1.282-.789,3.28,3.28,0,0,1,1.319-.153,3.223,3.223,0,0,1,1.367.429,4.907,4.907,0,0,1,.863.713q1.627,1.593,3.268,3.233a.049.049,0,0,0,.038.014.048.048,0,0,0,.036-.019q.844-1.125,1.679-2.215a2.456,2.456,0,0,1,2.25-1.019,2.382,2.382,0,0,1,1.016.312q.1.059.847.607.49.362.979.726a10.467,10.467,0,0,1,.948.758,2.64,2.64,0,0,1,.742,1.731,2.627,2.627,0,0,1-.56,1.786q-1.113,1.477-2.217,2.954a.068.068,0,0,0,.007.089l4.538,4.5a5.089,5.089,0,0,1,.825.966,2.314,2.314,0,0,1,.232,1.516,2.181,2.181,0,0,1-.516,1.1q-.363.419-.765.8a2.911,2.911,0,0,1-2,.841h-.084A2.827,2.827,0,0,1-1364.066,69.794Z" transform="translate(1391.455 -50.314)" fill="#fff"/>
</svg>
