<svg xmlns="http://www.w3.org/2000/svg" width="25.618" height="24.49" viewBox="0 0 25.618 24.49">
  <g id="noun-voucher-4174701" transform="matrix(0.766, -0.643, 0.643, 0.766, 0.348, 14.399)">
    <path id="Path_19216" data-name="Path 19216" d="M1.269,6.366a.868.868,0,0,1-.08.109,2.257,2.257,0,0,1-.332.281l-.008.006A2.1,2.1,0,0,0,.009,8.429C0,8.986,0,9.9,0,10.6a2.1,2.1,0,0,0,2.1,2.1H19.758a2.1,2.1,0,0,0,2.1-2.1V8.416a2.1,2.1,0,0,0-.782-1.635l-.01-.008a2.082,2.082,0,0,1-.306-.279c-.038-.043-.081-.073-.08-.119,0-.061.052-.108.1-.167a2.352,2.352,0,0,1,.31-.293l.006-.005a2.1,2.1,0,0,0,.754-1.61c.007-.545.007-1.483.007-2.2a2.1,2.1,0,0,0-2.1-2.1H2.1A2.1,2.1,0,0,0,0,2.1V4.278A2.1,2.1,0,0,0,.812,5.936l.009.007a2.657,2.657,0,0,1,.347.3c.044.047.093.079.1.125ZM20.6,2.1c0,.711,0,1.642-.007,2.192V4.3a.836.836,0,0,1-.3.639,1.979,1.979,0,0,0-.873,1.41,1.817,1.817,0,0,0,.867,1.414.839.839,0,0,1,.31.651V10.6a.84.84,0,0,1-.84.841H2.1a.84.84,0,0,1-.84-.841c0-.7,0-1.6.008-2.156v-.01A.837.837,0,0,1,1.6,7.774a1.817,1.817,0,0,0,.929-1.422,1.946,1.946,0,0,0-.947-1.413.841.841,0,0,1-.322-.661V2.1A.84.84,0,0,1,2.1,1.262H19.759a.84.84,0,0,1,.84.841Z" transform="translate(0 0.007)" fill="#ee3b59" stroke="#ee3b59" stroke-width="0.5" fill-rule="evenodd"/>
    <path id="Path_19217" data-name="Path 19217" d="M0,.631V12.082a.631.631,0,0,0,1.262,0V.631A.631.631,0,0,0,0,.631Z" transform="translate(5.762 0)" fill="#ee3b59" stroke="#ee3b59" stroke-width="0.5" fill-rule="evenodd"/>
    <path id="Path_19218" data-name="Path 19218" d="M5.48,0H.631a.631.631,0,1,0,0,1.262H5.48A.631.631,0,1,0,5.48,0Z" transform="translate(10.825 7.575)" fill="#ee3b59" stroke="#ee3b59" stroke-width="0.5" fill-rule="evenodd"/>
    <path id="Path_19219" data-name="Path 19219" d="M5.48,0H.631a.631.631,0,0,0,0,1.262H5.48A.631.631,0,0,0,5.48,0Z" transform="translate(10.825 4.178)" fill="#ee3b59" stroke="#ee3b59" stroke-width="0.5" fill-rule="evenodd"/>
  </g>
</svg>
