<svg xmlns="http://www.w3.org/2000/svg" width="11.579" height="10.752" viewBox="0 0 11.579 10.752">
  <path id="Icon_ionic-ios-star" data-name="Icon ionic-ios-star" d="M13.389,7.1h-3.8L8.432,3.649a.419.419,0,0,0-.786,0L6.491,7.1H2.664a.415.415,0,0,0-.414.414.3.3,0,0,0,.008.07.4.4,0,0,0,.173.292l3.125,2.2-1.2,3.487a.415.415,0,0,0,.142.465.4.4,0,0,0,.233.1.507.507,0,0,0,.258-.093l3.05-2.174,3.05,2.174a.484.484,0,0,0,.258.093.371.371,0,0,0,.23-.1.41.41,0,0,0,.142-.465l-1.2-3.487,3.1-2.223.075-.065a.4.4,0,0,0-.3-.69Z" transform="translate(-2.25 -3.375)" fill="#f8c346"/>
</svg>
