<svg xmlns="http://www.w3.org/2000/svg" width="55" height="16.2" viewBox="0 0 55 16.2">
  <g id="Stc_pay" transform="translate(-122.034 -118.25)">
    <g id="Group_4878" data-name="Group 4878" transform="translate(137.726 121.633)">
      <path id="Path_19141" data-name="Path 19141" d="M408.291,179.96l-.041.032" transform="translate(-408.25 -179.96)" fill="none"/>
      <path id="Path_19142" data-name="Path 19142" d="M408.651,239.262l-.021-.022" transform="translate(-408.609 -235.99)" fill="none"/>
    </g>
    <path id="Path_19143" data-name="Path 19143" d="M351.344,121.633l-.041.032-3.266,0a.036.036,0,0,1-.037-.036v-3.339a.037.037,0,0,1,.037-.037l3.269,0a.039.039,0,0,1,.038.039Z" transform="translate(-213.577 0)" fill="#fff"/>
    <path id="Path_19144" data-name="Path 19144" d="M126,178.082a1.689,1.689,0,0,0,.541.211q1.139.221,2.276.451a4.281,4.281,0,0,1,3.491,2.876c.639,2.486-1.175,4.385-3.477,4.843-2.17.431-4.734-.074-6.11-1.933a3.49,3.49,0,0,1-.686-1.719.049.049,0,0,1,.038-.053l2.821-.617a.024.024,0,0,1,.028.021c.118,1.72,2.279,2.184,3.565,1.656a1.054,1.054,0,0,0,.367-1.792,2.379,2.379,0,0,0-.964-.409q-1.105-.274-2.212-.542a4.629,4.629,0,0,1-2.863-1.845,3.6,3.6,0,0,1-.3-2.824c1.14-3.72,7.112-3.826,9.161-.969a3.339,3.339,0,0,1,.592,1.54.057.057,0,0,1-.044.063l-2.733.617a.024.024,0,0,1-.019,0,.026.026,0,0,1-.011-.017c-.223-1.507-1.915-1.9-3.169-1.469A1.027,1.027,0,0,0,126,178.082Z" transform="translate(0 -52.162)" fill="#fff"/>
    <path id="Path_19145" data-name="Path 19145" d="M495.759,186.471a6.52,6.52,0,0,1-7.887-7.588,6.381,6.381,0,0,1,7.816-5.28,5.529,5.529,0,0,1,4.347,4.016.03.03,0,0,1-.019.036l-2.947.992a.036.036,0,0,1-.045-.022,2.694,2.694,0,0,0-2.2-2.016,3.23,3.23,0,0,0-2.372.531,3.882,3.882,0,0,0-1.055,4.376,3.048,3.048,0,0,0,5.752-.039.027.027,0,0,1,.014-.016.028.028,0,0,1,.021,0l2.892.953a.046.046,0,0,1,.029.056A5.655,5.655,0,0,1,495.759,186.471Z" transform="translate(-345.695 -52.177)" fill="#fff"/>
    <path id="Path_19146" data-name="Path 19146" d="M773.988,178.188a2.361,2.361,0,0,1,1.609-.78c4.125-.325,4.182,6.582.178,6.5a2.41,2.41,0,0,1-1.761-.789q-.048-.05-.048.019v2.953a.031.031,0,0,1-.031.031h-1.4a.036.036,0,0,1-.036-.036v-8.5a.03.03,0,0,1,.03-.03l1.405,0a.028.028,0,0,1,.028.027l.007.6Q773.97,178.208,773.988,178.188Zm.011,3.3a1.832,1.832,0,0,0,1.319,1.015c2.566.424,2.546-4.277-.128-3.674a1.7,1.7,0,0,0-1.161.916.534.534,0,0,0-.06.252q0,.645,0,1.361A.275.275,0,0,0,774,181.484Z" transform="translate(-614.804 -55.904)" fill="#fff"/>
    <path id="Path_19147" data-name="Path 19147" d="M408.291,179.96a.152.152,0,0,0,.082.016h3.211a.037.037,0,0,1,.037.037v3.164a.047.047,0,0,1-.047.047l-3.283.008-.021-.022c0-.326.049-3.156-.021-3.218Z" transform="translate(-270.524 -58.327)" fill="#fff"/>
    <path id="Path_19148" data-name="Path 19148" d="M907.189,185.691c0-.03-.01-.034-.03-.01a2.335,2.335,0,0,1-1.015.715,2.545,2.545,0,0,1-2.71-.557,1.975,1.975,0,0,1,.334-2.781,2.194,2.194,0,0,1,.983-.349q1.2-.145,2.4-.305a.036.036,0,0,0,.031-.031c.034-.31,0-.723-.342-.809a2.766,2.766,0,0,0-.427-.015q-1.41.005-2.819-.011a.028.028,0,0,1-.028-.027l-.008-1.259a.046.046,0,0,1,.013-.033.047.047,0,0,1,.033-.014q1.734-.01,3.392.013a1.813,1.813,0,0,1,.441.076,1.517,1.517,0,0,1,1.218,1.514q.018.946-.01,4.527a.029.029,0,0,1-.028.028l-1.38.009a.046.046,0,0,1-.034-.014.05.05,0,0,1-.014-.035Zm-2.4-.522a1.21,1.21,0,0,0,.747.2,1.884,1.884,0,0,0,1.48-.752,1.386,1.386,0,0,0,.172-1.014.032.032,0,0,0-.011-.024.033.033,0,0,0-.026-.008q-.774.106-1.525.217a1.369,1.369,0,0,0-.969.368A.725.725,0,0,0,904.79,185.169Z" transform="translate(-738.161 -58.555)" fill="#fff"/>
    <path id="Path_19149" data-name="Path 19149" d="M1023.1,184.468c.021.065.042.064.062,0l1.3-4.187a.038.038,0,0,1,.036-.027l1.436,0a.026.026,0,0,1,.025.035q-1.2,3.453-2.381,6.874a2.149,2.149,0,0,1-1.179,1.545,6.1,6.1,0,0,1-1.886.112.047.047,0,0,1-.047-.047l.008-1.244a.029.029,0,0,1,.028-.028q.522-.017,1.045-.012c.621.006.716-.589.871-1.048a.078.078,0,0,0,0-.053l-2.214-6.089a.03.03,0,0,1,0-.027.029.029,0,0,1,.024-.013l1.457.007a.038.038,0,0,1,.036.026Z" transform="translate(-848.929 -58.601)" fill="#fff"/>
    <path id="Path_19150" data-name="Path 19150" d="M351.277,239.24l.021.022q0,2.457,0,4.9c0,.67.16,1.3.864,1.535a2.932,2.932,0,0,0,2.416-.361q.052-.033.052.028V248a.085.085,0,0,1-.034.068,4.516,4.516,0,0,1-2.817.724,3.572,3.572,0,0,1-3.814-3.877q-.02-2.77-.01-5.628a.045.045,0,0,1,.045-.045Z" transform="translate(-213.53 -114.357)" fill="#fff"/>
  </g>
</svg>
