<svg xmlns="http://www.w3.org/2000/svg" width="28.659" height="26.914" viewBox="0 0 28.659 26.914">
  <g id="noun-wallet-5798749" transform="translate(-8.33 -17.966)">
    <g id="Group_4964" data-name="Group 4964" transform="translate(8.33 17.966)">
      <path id="Path_19241" data-name="Path 19241" d="M34.869,37.9v2.461a4.507,4.507,0,0,1-1.327,3.19l-.034.032a4.506,4.506,0,0,1-3.156,1.3H12.846A4.533,4.533,0,0,1,8.33,40.363l.019-13.587a5.766,5.766,0,0,1,1.344-3.723l.033-.035A4.359,4.359,0,0,1,13,21.463h6.278l5.424-3.4a.6.6,0,0,1,.83.188l.047.09,1.3,3.13a4.365,4.365,0,0,1,2.781,1.188,5.292,5.292,0,0,1,1.513,2.61,4.533,4.533,0,0,1,3.7,4.441v2.549A2.957,2.957,0,0,1,36.123,33a2.928,2.928,0,0,1,0,4.154l-.036.033a2.942,2.942,0,0,1-1.22.712Zm-6.359-3.624a.872.872,0,1,1-.96.868A.916.916,0,0,1,28.511,34.279ZM14.584,30.946a.6.6,0,1,1,1.207,0V38.61a.6.6,0,0,1-1.207,0Zm-2.446-.8a.6.6,0,0,1,1.207,0v9.785a.6.6,0,0,1-1.207,0V30.142Zm21.525,2V29.707a3.319,3.319,0,0,0-3.31-3.31H12.847a3.319,3.319,0,0,0-3.309,3.31V40.363a3.315,3.315,0,0,0,3.309,3.31H30.353a3.3,3.3,0,0,0,2.31-.944l.027-.028a3.3,3.3,0,0,0,.973-2.337V38.021H27.8a2.941,2.941,0,0,1,0-5.882h5.866Zm.386,1.207H27.8a1.734,1.734,0,0,0,0,3.469h6.252a1.729,1.729,0,0,0,1.2-.482l.025-.027a1.734,1.734,0,0,0-1.224-2.959ZM17.36,22.671H13.005a3.165,3.165,0,0,0-2.371,1.138l-.025.032a4.53,4.53,0,0,0-1.053,2.781l.1-.1a4.5,4.5,0,0,1,3.19-1.327h.5l4.014-2.52Zm-1.75,2.52H27.12l-2.376-5.733Zm12.814,0H29.9a4.008,4.008,0,0,0-1.054-1.653,3.234,3.234,0,0,0-1.431-.78l1.008,2.434Z" transform="translate(-8.33 -17.966)" fill="#ee3b59"/>
    </g>
  </g>
</svg>
