<svg id="Group_3158" data-name="Group 3158" xmlns="http://www.w3.org/2000/svg" width="43.969" height="22.685" viewBox="0 0 43.969 22.685">
  <g id="Group_591" data-name="Group 591" transform="translate(5.454)">
    <path id="Path_479" data-name="Path 479" d="M5761.192,1819.475l-.221.719-.771,2.514-.592,1.929-1.23,3.592-.814-2.971-.5-1.635.9-2.917.035-.113a1.679,1.679,0,0,1,1.586-1.129h1.572Z" transform="translate(-5742.437 -1819.465)" fill="#fff"/>
    <path id="Path_480" data-name="Path 480" d="M5616.1,1827.99h-.006a3.389,3.389,0,0,0-2.5,1.1l-1.37-4.448-.16-.52-.16.52-2.279,7.4a2.24,2.24,0,0,1-2.185,1.75h-.033a2.24,2.24,0,0,1-2.185-1.75l-2.279-7.4-.592-1.93-.771-2.514-.221-.719.033-.01h1.572a1.678,1.678,0,0,1,1.586,1.129l.035.113,2.643,8.609.2.64.2-.64,2.642-8.609.035-.113a1.68,1.68,0,0,1,1.586-1.129h.361a1.681,1.681,0,0,1,1.586,1.129l.035.113,1.511,4.925Z" transform="translate(-5601.354 -1819.466)" fill="#1cd2e2"/>
    <path id="Path_481" data-name="Path 481" d="M5807.079,1823.732a1.584,1.584,0,0,0,1.211,1.538h2.209l2.138,0,1.229,0h.467a4.263,4.263,0,0,1,1.411,8.186,4,4,0,0,0,.309-3.5.011.011,0,0,0,0-.009,3.107,3.107,0,0,0-2.892-1.96h-4.533a4.261,4.261,0,0,1-2.436-7.732l0,0a4.24,4.24,0,0,1,2.21-.781h.508l4.08-.007h5.4v.035l-.462,1.5a1.679,1.679,0,0,1-1.545,1.186h-8.1A1.583,1.583,0,0,0,5807.079,1823.732Z" transform="translate(-5785.328 -1819.469)" fill="#1cd2e2"/>
    <path id="Path_482" data-name="Path 482" d="M5928.46,1931.17q.029.076.056.154C5928.5,1931.273,5928.479,1931.221,5928.46,1931.17Z" transform="translate(-5897.736 -1920.678)" fill="#1cd2e2"/>
    <circle id="Ellipse_2" data-name="Ellipse 2" cx="1.917" cy="1.917" r="1.917" transform="translate(12.791 10.009)" fill="#fff"/>
    <circle id="Ellipse_3" data-name="Ellipse 3" cx="1.917" cy="1.917" r="1.917" transform="translate(25.078 10.009)" fill="#fff"/>
    <circle id="Ellipse_4" data-name="Ellipse 4" cx="1.917" cy="1.917" r="1.917" transform="translate(19.024 10.009)" fill="#fff"/>
  </g>
  <g id="Group_592" data-name="Group 592" transform="translate(0 17.051)">
    <path id="Path_483" data-name="Path 483" d="M5548.688,2009.27h-.253a.531.531,0,0,1-.506-.331,11.277,11.277,0,0,1-1.047-2.913,11.446,11.446,0,0,1-1.229,3.244h-.245a.543.543,0,0,1-.532-.331,14.413,14.413,0,0,1-1.587-4.971h.6a.683.683,0,0,1,.638.6,13.05,13.05,0,0,0,.862,3.044,19.3,19.3,0,0,0,1-3.445h.349a.777.777,0,0,1,.818.7,13.077,13.077,0,0,0,.873,2.747,15.293,15.293,0,0,0,.977-3.637h.55a.449.449,0,0,1,.453.489,15.249,15.249,0,0,1-.541,2.1A12.935,12.935,0,0,1,5548.688,2009.27Z" transform="translate(-5543.289 -2003.688)" fill="#f5f6f4"/>
    <path id="Path_484" data-name="Path 484" d="M5640.945,2019.367h-.645a1.032,1.032,0,0,0,1.107.811,1.783,1.783,0,0,0,1.213-.375h.035v.314c0,.506-.34.89-1.43.89a2.072,2.072,0,0,1-.008-4.134,1.537,1.537,0,0,1,1.587,1.535C5642.8,2019.132,5642.253,2019.367,5640.945,2019.367Zm.183-1.675a.855.855,0,0,0-.828.846v.131h.436c.933,0,1.143-.1,1.143-.384C5641.879,2017.894,5641.582,2017.693,5641.128,2017.693Z" transform="translate(-5630.271 -2015.382)" fill="#f5f6f4"/>
    <path id="Path_485" data-name="Path 485" d="M5706.887,2006.62a1.912,1.912,0,0,1-1.867-2.015V2001h.34a.6.6,0,0,1,.646.68v1.413a1.272,1.272,0,0,1,1.064-.6,1.832,1.832,0,0,1,1.779,1.988A1.99,1.99,0,0,1,5706.887,2006.62Zm0-3.262a1,1,0,0,0-.872,1.108c0,.907.383,1.282.968,1.282.5,0,.846-.471.846-1.108C5707.829,2003.681,5707.488,2003.358,5706.887,2003.358Z" transform="translate(-5689.829 -2000.995)" fill="#f5f6f4"/>
    <path id="Path_486" data-name="Path 486" d="M5774.143,2008.48c-1.063,0-1.6-.419-1.6-1.038v-.471h.018a2.161,2.161,0,0,0,1.474.567c.785,0,1.038-.27,1.038-.689,0-.357-.14-.523-1.248-.759-.889-.192-1.4-.636-1.4-1.352a1.8,1.8,0,0,1,1.971-1.7c1.23,0,1.579.515,1.579.959v.479h-.025a1.79,1.79,0,0,0-1.37-.515c-.811,0-1.117.271-1.117.68,0,.314.245.506,1.23.707.959.2,1.43.7,1.43,1.4C5776.123,2007.791,5775.416,2008.48,5774.143,2008.48Z" transform="translate(-5750.903 -2002.846)" fill="#f5f6f4"/>
    <path id="Path_487" data-name="Path 487" d="M5835.384,2004.892h-.968v4.334H5834a.621.621,0,0,1-.636-.707v-3.628h-1.519v-.349a.6.6,0,0,1,.637-.576h3.532v.332A.664.664,0,0,1,5835.384,2004.892Z" transform="translate(-5804.74 -2003.688)" fill="#f5f6f4"/>
    <path id="Path_488" data-name="Path 488" d="M5903.376,2009.1h-.445c-.889,0-1.457-.349-1.457-1.16v-3.959a4.889,4.889,0,0,1,1.3-.2h.54a2.408,2.408,0,0,1,2.478,2.564A2.536,2.536,0,0,1,5903.376,2009.1Zm-.218-4.43h-.227a3.038,3.038,0,0,0-.4.052v3.017c0,.305.139.445.523.445h.183a1.559,1.559,0,0,0,1.483-1.692C5904.72,2005.316,5904.065,2004.671,5903.158,2004.671Z" transform="translate(-5867.832 -2003.52)" fill="#f5f6f4"/>
    <path id="Path_489" data-name="Path 489" d="M5969.059,2006.985v2.241h-.445a.642.642,0,0,1-.636-.689v-1.552a11.794,11.794,0,0,1-1.605-3.018h.5a.74.74,0,0,1,.706.366,11.111,11.111,0,0,0,1,1.84,8.533,8.533,0,0,0,1.134-2.207h.462a.386.386,0,0,1,.428.41A9.278,9.278,0,0,1,5969.059,2006.985Z" transform="translate(-5926.633 -2003.688)" fill="#f5f6f4"/>
  </g>
</svg>
